# xmcd
# 
# Track frame offsets:
#     150
#     18387
#     47587
#     65885
#     83885
#     94722
#     113005
#     118647
#     130475
# 
# Disc length: 1979
# 
# Revision: 1
# Processed by: cddbd v1.5.2PL0 Copyright (c) Steve Scherf et al.
# Submitted via: fre:ac v1.0.17
# 
DISCID=7607b909
DTITLE=伊藤佳代 Ito Kayo - 观音心 The heart of mercy
DYEAR=2004
DGENRE=A Cappella
TTITLE0=观音真言 M MA NYE BHE MAEHUM
TTITLE1=来自心海的声音 Voice from the cean of Heart
TTITLE2=观心Ⅰ Viewing the mind Ⅰ
TTITLE3=观心 Ⅱ Viewing the mind Ⅱ
TTITLE4=妈妈的摇篮曲 Mon s cradlesong
TTITLE5=绽放 Blossoming绽放 Blossoming
TTITLE6=呼唤 Yelling
TTITLE7=鼓舞 Lnspiralion
TTITLE8=观音心 The heart of mercy
EXTD=
EXTT0=
EXTT1=
EXTT2=
EXTT3=
EXTT4=
EXTT5=
EXTT6=
EXTT7=
EXTT8=
PLAYORDER=
